<svg xmlns="http://www.w3.org/2000/svg" width="24" height="24" fill="none" viewBox="0 0 24 24"><path fill="#fff" fill-opacity=".85" d="M23.122 2.637L21.363.88A2.99 2.99 0 0019.242 0a2.99 2.99 0 00-2.121.878L13.629 4.37 12 6 .602 17.396.007 22.75a1.125 1.125 0 001.242 1.243l5.35-.591L18.001 12l1.628-1.629 3.492-3.491a3 3 0 000-4.243zM5.566 21.253l-3.167.35.353-3.174L13.59 7.59l1.454-1.454 2.819 2.819-1.454 1.454L5.566 21.253zM21.53 5.288l-2.076 2.076-2.818-2.819 2.076-2.076a.747.747 0 011.06 0l1.758 1.759a.75.75 0 010 1.06z"/></svg>